<?xml version="1.0" standalone="no"?>
<!DOCTYPE svg PUBLIC "-//W3C//DTD SVG 20010904//EN"
 "http://www.w3.org/TR/2001/REC-SVG-20010904/DTD/svg10.dtd">
<svg version="1.0" xmlns="http://www.w3.org/2000/svg"
 width="300.000000pt" height="301.000000pt" viewBox="0 0 300.000000 301.000000"
 preserveAspectRatio="xMidYMid meet">
<metadata>
Created by potrace 1.10, written by Peter Selinger 2001-2011
</metadata>
<g transform="translate(0.000000,301.000000) scale(0.100000,-0.100000)"
fill="#000000" stroke="none">
<path d="M1440 2949 c-14 -4 -54 -8 -90 -8 -78 -1 -143 -18 -231 -60 -37 -18
-84 -35 -105 -38 -58 -9 -144 -56 -204 -110 -29 -26 -64 -54 -79 -62 -32 -17
-102 -70 -118 -91 -7 -8 -34 -46 -60 -84 -26 -37 -52 -70 -59 -73 -14 -5 -104
-138 -104 -153 0 -6 -14 -37 -32 -68 -49 -88 -68 -129 -68 -149 0 -11 -13 -57
-30 -103 -16 -47 -30 -101 -30 -120 -1 -19 -8 -53 -16 -75 -29 -76 -40 -139
-33 -205 3 -36 4 -101 1 -146 -4 -65 -1 -93 17 -145 34 -103 34 -128 0 -162
-40 -39 -65 -92 -73 -151 -3 -27 -15 -63 -26 -81 -11 -18 -29 -59 -40 -91 -11
-32 -29 -73 -40 -91 -11 -19 -20 -50 -19 -71 l1 -37 8 32 c4 17 18 51 32 75
14 24 28 59 32 79 3 19 19 55 34 80 18 27 31 65 35 98 7 60 46 133 83 157 22
15 24 21 19 63 -4 25 -15 67 -26 94 -15 37 -20 72 -20 165 -1 64 -1 147 -2
183 0 50 6 79 26 121 14 31 23 59 20 61 -8 8 18 130 34 161 9 17 22 57 29 88
8 32 25 80 39 106 40 74 50 93 80 155 16 33 47 78 70 100 23 23 57 67 77 97
40 63 119 140 169 165 19 10 59 41 90 70 66 60 133 95 205 104 28 4 64 16 80
27 52 37 117 56 214 65 52 5 121 11 152 15 38 4 80 1 125 -9 37 -9 98 -18 136
-21 65 -5 144 -32 177 -60 8 -8 38 -17 65 -21 66 -9 157 -59 203 -110 20 -22
63 -56 96 -75 61 -36 131 -110 161 -170 10 -19 38 -57 63 -85 25 -27 56 -75
69 -105 13 -30 28 -62 34 -70 52 -84 70 -123 80 -170 6 -30 21 -75 32 -100 12
-25 23 -72 25 -105 3 -33 10 -69 17 -80 31 -50 47 -126 41 -198 -7 -93 -7 -81
-5 -163 1 -43 -5 -92 -14 -120 -9 -27 -21 -74 -27 -104 -10 -53 -10 -55 15
-73 38 -28 75 -99 82 -158 4 -32 17 -71 34 -97 15 -24 31 -62 35 -85 3 -23 17
-55 29 -72 13 -16 28 -46 33 -65 l10 -35 1 38 c1 26 -7 49 -24 71 -14 18 -25
40 -25 49 0 20 -38 108 -55 127 -8 8 -17 37 -20 64 -9 67 -36 126 -74 164 -18
17 -30 35 -28 39 3 5 8 26 11 47 4 22 13 63 22 91 8 29 15 95 16 146 2 241 2
241 -25 309 -14 36 -28 86 -32 112 -3 27 -12 67 -21 90 -9 24 -23 72 -33 108
-9 36 -28 85 -41 109 -14 24 -29 52 -35 62 -5 11 -13 19 -17 19 -5 0 -8 7 -8
15 0 20 -42 105 -52 105 -4 0 -8 6 -8 13 0 6 -18 30 -40 51 -22 22 -40 45 -40
51 0 17 -67 103 -108 139 -19 16 -55 43 -80 59 -26 16 -60 44 -77 63 -43 47
-138 101 -203 115 -31 6 -72 21 -91 34 -53 33 -85 42 -186 51 -33 3 -91 12
-128 20 -70 15 -112 16 -157 3z"/>
<path d="M1435 2849 c-16 -5 -53 -8 -81 -6 -55 5 -161 -23 -204 -53 -31 -21
-85 -40 -115 -40 -32 0 -114 -46 -165 -94 -25 -22 -70 -56 -100 -75 -52 -31
-140 -125 -140 -149 0 -6 -24 -37 -54 -68 -59 -63 -166 -259 -191 -349 -7 -27
-23 -76 -34 -107 -12 -32 -21 -75 -21 -97 0 -22 -11 -64 -24 -94 -21 -49 -23
-67 -23 -218 0 -136 3 -172 18 -212 11 -26 19 -62 19 -80 0 -18 7 -45 15 -61
20 -39 19 -63 -5 -71 -27 -8 -80 -62 -91 -93 -6 -14 -10 -46 -11 -70 0 -35 -8
-55 -33 -88 -18 -24 -36 -61 -40 -84 -4 -22 -23 -66 -42 -98 -30 -50 -34 -63
-29 -105 3 -27 14 -63 24 -80 16 -28 29 -38 93 -68 18 -8 122 24 127 40 6 17
30 13 36 -7 10 -31 79 -94 126 -115 62 -28 179 -34 249 -13 44 13 58 13 77 3
50 -26 121 -71 154 -97 63 -49 121 -72 190 -77 41 -3 85 -14 120 -31 52 -25
63 -26 230 -26 171 -1 176 0 233 27 36 17 74 27 102 27 58 0 136 31 194 78 25
21 60 44 76 52 17 8 42 25 56 38 26 23 59 26 87 9 6 -5 44 -12 83 -16 61 -6
81 -4 136 15 79 27 125 62 147 108 20 43 27 44 70 11 38 -29 86 -32 137 -11
89 38 117 160 55 241 -15 20 -30 52 -33 72 -7 39 -45 114 -68 133 -10 8 -15
31 -15 62 0 78 -34 128 -118 174 -1 1 4 21 12 45 8 24 17 64 20 89 2 25 11 61
20 81 14 33 18 106 17 310 0 21 -11 66 -24 100 -13 35 -27 91 -31 124 -4 33
-13 70 -22 82 -8 13 -12 23 -9 23 3 0 1 8 -4 19 -6 10 -13 33 -16 51 -3 18
-16 52 -28 75 -30 58 -77 154 -91 184 -6 14 -31 47 -56 75 -25 28 -54 69 -65
90 -26 51 -119 146 -144 146 -5 0 -42 30 -81 66 -71 65 -140 104 -185 104 -29
0 -77 18 -85 31 -10 15 -116 49 -154 49 -19 0 -70 7 -113 15 -87 17 -134 18
-178 4z m155 -13 c30 -7 89 -16 131 -19 78 -5 117 -19 156 -56 15 -15 35 -21
66 -21 59 0 139 -42 185 -97 20 -25 59 -56 85 -69 62 -32 124 -96 153 -159 13
-27 39 -62 58 -77 32 -26 86 -120 86 -151 0 -8 7 -20 16 -27 28 -24 64 -96 74
-150 6 -30 20 -74 32 -98 13 -27 21 -66 22 -102 1 -32 6 -64 12 -71 38 -52 40
-68 35 -251 -1 -16 0 -59 2 -96 1 -49 -3 -75 -14 -92 -9 -14 -18 -53 -22 -88
-3 -37 -14 -77 -26 -98 -12 -20 -21 -37 -19 -38 55 -23 102 -56 118 -81 21
-34 26 -90 11 -114 -6 -9 2 -24 28 -50 34 -34 61 -94 61 -136 0 -9 11 -30 25
-47 41 -48 51 -99 31 -153 -38 -99 -163 -125 -219 -45 -18 26 -41 18 -57 -20
-46 -110 -199 -164 -349 -122 l-72 21 -45 -35 c-25 -19 -52 -34 -60 -34 -8 0
-33 -17 -57 -39 -61 -56 -121 -83 -196 -89 -41 -3 -84 -14 -115 -30 -49 -25
-81 -28 -221 -25 -22 1 -65 0 -95 0 -42 -2 -68 5 -111 26 -38 18 -72 27 -106
27 -77 0 -145 25 -200 73 -26 24 -64 49 -82 57 -19 8 -49 26 -66 41 l-31 27
-69 -19 c-84 -23 -144 -24 -212 -4 -61 18 -137 82 -155 130 -14 41 -39 45 -61
12 -36 -55 -121 -59 -175 -9 -58 55 -61 146 -7 210 14 17 25 42 25 58 0 37 36
109 66 133 21 16 23 24 17 69 -4 40 -2 57 14 81 20 32 79 81 97 81 33 1 37 18
12 54 -14 21 -28 58 -31 84 -4 26 -14 65 -23 86 -11 27 -16 60 -14 100 5 92 4
105 -3 177 -7 59 -5 73 19 124 16 35 26 76 26 104 1 25 7 62 14 81 27 70 36
96 51 151 8 30 27 73 41 95 15 21 38 66 51 99 14 37 42 79 72 110 26 27 62 73
80 102 39 63 104 124 163 154 23 12 56 37 71 55 40 48 105 83 175 94 37 6 81
23 117 44 58 36 138 53 193 43 15 -2 43 1 62 8 46 18 94 18 160 1z"/>
<path d="M1440 2790 c-8 -5 -49 -9 -90 -8 -69 0 -84 -3 -160 -40 -47 -22 -105
-43 -130 -47 -60 -10 -89 -26 -147 -81 -26 -25 -71 -59 -100 -75 -54 -31 -113
-92 -140 -144 -9 -16 -39 -55 -68 -85 -30 -32 -59 -76 -70 -105 -11 -27 -33
-72 -50 -100 -18 -27 -39 -81 -49 -119 -9 -38 -24 -82 -32 -97 -8 -16 -17 -57
-21 -91 -3 -35 -15 -81 -26 -103 -19 -39 -26 -111 -18 -195 2 -19 2 -65 1
-101 -1 -39 4 -80 13 -100 8 -19 17 -57 21 -84 4 -28 19 -69 32 -92 30 -52 22
-73 -33 -96 -21 -8 -49 -27 -63 -42 -22 -23 -25 -35 -23 -89 3 -59 1 -65 -26
-86 -32 -24 -61 -85 -61 -126 0 -14 -14 -43 -31 -64 -24 -30 -31 -48 -31 -81
1 -88 96 -134 144 -69 30 41 87 43 117 4 12 -15 21 -32 21 -40 0 -22 79 -81
125 -94 49 -14 139 -9 226 11 l57 13 43 -37 c23 -20 48 -37 55 -37 7 0 38 -20
71 -44 83 -62 99 -68 188 -77 54 -5 96 -16 129 -33 46 -24 55 -25 205 -23 147
2 159 4 214 30 34 16 75 27 99 27 60 0 113 19 156 56 21 18 67 49 101 69 34
20 65 43 67 50 9 24 30 24 100 3 52 -15 86 -19 139 -15 99 7 146 34 192 112
26 45 33 50 68 53 33 3 42 -1 62 -27 41 -52 110 -35 139 34 16 40 5 87 -30
124 -13 15 -26 45 -30 70 -7 45 -36 96 -69 120 -17 12 -18 22 -13 71 8 69 -10
97 -85 135 -27 14 -49 32 -49 40 0 8 9 32 21 55 11 22 25 68 29 102 4 35 15
80 24 100 11 26 14 52 10 90 -4 29 -6 60 -5 68 0 8 4 45 7 82 6 61 4 73 -25
134 -21 45 -31 81 -31 114 0 26 -9 67 -19 91 -11 24 -22 57 -25 72 -10 54 -29
102 -53 135 -14 18 -37 61 -53 95 -15 35 -47 83 -71 107 -23 25 -48 60 -56 78
-19 47 -89 120 -138 144 -22 11 -61 42 -86 68 -55 57 -87 75 -170 95 -35 8
-75 23 -90 34 -32 24 -84 38 -164 46 -33 3 -78 9 -100 15 -51 12 -126 12 -145
0z m135 -25 c39 -8 100 -17 138 -21 54 -4 76 -12 117 -40 31 -21 62 -34 81
-34 65 0 113 -23 169 -81 30 -31 73 -66 95 -77 64 -32 127 -102 140 -155 4
-15 25 -42 46 -59 38 -31 89 -116 89 -148 0 -9 9 -25 21 -36 29 -26 57 -84 65
-136 4 -23 18 -65 31 -93 14 -32 23 -69 23 -102 0 -36 8 -66 25 -98 34 -66 40
-106 22 -160 -12 -32 -13 -54 -6 -77 14 -49 11 -99 -8 -133 -9 -16 -19 -60
-23 -97 -5 -49 -14 -78 -34 -106 -14 -21 -26 -49 -26 -63 0 -21 7 -27 46 -37
28 -8 60 -26 80 -46 l33 -33 -15 -48 c-19 -65 -18 -68 16 -83 45 -20 74 -74
67 -125 -5 -39 -3 -44 26 -62 56 -36 62 -108 12 -141 -25 -17 -81 -12 -70 6 3
5 0 12 -7 16 -7 5 -4 10 12 16 45 17 4 25 -75 15 l-80 -10 -20 -51 c-22 -56
-62 -89 -129 -107 -52 -14 -110 -7 -215 26 -47 15 -92 29 -100 32 -9 3 -6 -4
8 -16 23 -21 23 -22 5 -42 -11 -12 -37 -30 -59 -41 -22 -12 -60 -38 -85 -59
-60 -50 -107 -69 -175 -69 -42 0 -67 -6 -100 -25 -51 -31 -125 -41 -179 -26
-29 7 -52 7 -84 -1 -48 -12 -107 0 -152 32 -17 12 -51 19 -105 22 -89 5 -121
18 -190 78 -25 22 -52 40 -60 40 -7 0 -31 15 -53 34 l-40 33 20 21 c20 19 13
18 -73 -10 -124 -42 -223 -45 -287 -9 -47 27 -72 60 -82 106 -6 29 -8 30 -90
41 -52 7 -89 8 -95 2 -6 -5 -2 -11 12 -14 14 -4 19 -11 16 -25 -7 -27 -48 -35
-78 -15 -49 32 -43 105 12 141 27 18 29 24 25 61 -6 52 16 95 64 124 28 18 34
27 30 44 -27 94 -21 117 46 150 29 14 60 26 70 26 28 0 24 65 -8 111 -15 22
-29 59 -33 91 -4 29 -14 64 -21 78 -10 18 -15 69 -16 180 -2 147 -1 158 22
202 17 34 24 64 24 103 0 40 7 70 25 105 14 27 25 62 25 77 0 26 18 67 70 163
10 19 26 54 36 78 10 24 37 60 59 80 23 20 51 55 63 77 33 65 89 122 152 156
33 17 71 46 85 64 37 49 88 76 160 85 45 6 74 16 99 35 48 37 118 56 180 50
33 -4 65 -1 91 9 50 19 38 19 120 1z"/>
<path d="M1453 2545 c-13 -9 -23 -31 -28 -61 -5 -37 -9 -44 -23 -39 -16 6 -38
12 -53 14 -4 1 -10 13 -14 28 -7 30 -23 53 -36 53 -10 0 18 -70 39 -92 14 -16
13 -18 -4 -18 -10 0 -28 7 -38 15 -28 21 -33 19 -28 -15 6 -39 -11 -38 -37 3
-13 20 -21 26 -21 15 0 -9 14 -30 31 -47 l30 -31 -28 2 c-15 1 -34 6 -42 12
-11 8 -13 8 -10 -3 5 -15 19 -24 54 -37 18 -6 17 -8 -10 -14 -16 -4 -25 -8
-18 -9 6 0 18 -4 26 -7 10 -3 17 3 22 18 11 40 28 68 41 68 6 0 25 7 40 15 40
20 52 19 57 -7 l4 -23 2 23 c0 12 7 22 15 22 8 0 16 5 18 11 3 8 10 8 26 -2
19 -12 24 -11 39 3 9 10 14 21 10 25 -4 3 -13 1 -19 -5 -25 -25 -37 -14 -26
26 5 20 14 41 19 47 25 26 -4 34 -38 10z"/>
<path d="M1615 2526 c-43 -16 -51 -22 -74 -62 -21 -36 -21 -36 -1 -41 15 -4
20 -14 20 -39 0 -18 5 -36 11 -40 8 -5 10 4 7 30 -4 33 -1 37 21 43 39 9 47
16 25 23 -10 4 -30 3 -43 -2 -13 -5 -25 -7 -27 -5 -8 7 58 76 69 72 7 -3 19
-1 27 5 25 15 -2 28 -35 16z"/>
<path d="M1686 2458 c-14 -18 -31 -39 -37 -46 -7 -8 -22 -12 -36 -9 -21 4 -22
3 -9 -12 8 -9 16 -27 19 -41 4 -22 4 -22 6 -3 1 25 93 83 131 83 29 0 22 16
-17 41 l-31 20 -26 -33z"/>
<path d="M1640 2362 c0 -4 11 -24 25 -43 14 -19 24 -42 21 -52 -2 -10 1 -29 8
-42 l12 -23 42 18 c30 13 42 25 42 40 0 11 -5 20 -11 20 -9 0 -62 35 -93 62
-6 4 13 8 42 8 40 0 52 -4 52 -15 0 -8 -8 -15 -17 -15 -17 -1 -17 -1 0 -11 25
-14 34 -5 29 31 l-4 30 -74 0 c-41 0 -74 -4 -74 -8z m90 -76 c0 -7 10 -20 22
-28 14 -9 18 -17 11 -21 -16 -10 -68 37 -59 51 10 16 26 15 26 -2z"/>
<path d="M1814 2319 c-3 -6 -2 -15 4 -21 13 -13 32 -2 32 18 0 16 -26 19 -36
3z"/>
<path d="M841 2306 c-14 -17 -7 -36 14 -36 22 0 29 20 13 36 -13 13 -16 13
-27 0z"/>
<path d="M2122 2293 c5 -26 38 -29 38 -4 0 15 -6 21 -21 21 -14 0 -19 -5 -17
-17z"/>
<path d="M751 2246 c-26 -31 14 -71 45 -45 21 17 14 53 -12 57 -11 2 -26 -4
-33 -12z"/>
<path d="M1311 2244 c-55 -24 -76 -59 -92 -159 -13 -78 2 -137 49 -194 20 -25
40 -52 45 -60 4 -10 5 -3 3 15 -3 18 -17 49 -31 70 -24 35 -26 47 -23 106 2
37 7 70 10 74 4 3 20 3 35 -2 27 -7 27 -8 5 -12 -20 -3 -23 -8 -17 -30 9 -36
12 -38 32 -20 10 9 24 17 32 20 11 3 11 7 -3 20 -9 9 -16 22 -16 28 0 6 -13
13 -29 16 l-30 6 22 32 c61 88 101 113 127 81 7 -9 19 -14 26 -11 7 3 16 0 20
-6 5 -7 2 -8 -7 -3 -8 5 -11 4 -6 -1 5 -5 13 -9 19 -9 6 0 17 -10 26 -22 14
-22 13 -23 -14 -23 -31 0 -94 -33 -94 -50 0 -16 14 -12 51 16 20 15 43 24 56
21 12 -2 20 0 17 4 -3 5 6 8 19 7 13 -1 24 -7 25 -13 0 -5 8 -29 16 -53 9 -23
13 -54 10 -67 -3 -14 -3 -25 0 -25 3 0 11 21 18 47 6 26 13 42 15 36 3 -8 10
-6 24 5 20 17 26 42 9 42 -5 0 -7 -7 -4 -15 4 -9 0 -15 -10 -15 -18 0 -22 15
-6 25 6 3 10 10 10 15 0 13 -99 71 -167 96 -72 27 -123 30 -172 8z"/>
<path d="M2193 2244 c-15 -39 38 -67 60 -32 8 12 7 21 -2 32 -17 21 -50 20
-58 0z"/>
<path d="M681 2205 c-49 -56 -73 -112 -77 -179 l-3 -61 9 59 c12 72 41 135 85
181 18 19 29 35 25 35 -4 0 -22 -16 -39 -35z"/>
<path d="M1654 2216 c-3 -15 -2 -37 3 -49 9 -20 11 -18 17 17 9 46 -9 75 -20
32z"/>
<path d="M2302 2203 c47 -50 67 -91 77 -161 l9 -57 1 45 c0 28 -8 64 -23 95
-25 55 -72 115 -89 115 -6 0 5 -17 25 -37z"/>
<path d="M1470 2107 c-14 -7 -26 -21 -28 -32 -4 -19 -3 -20 10 -1 13 17 15 17
21 2 8 -20 21 -20 41 0 37 36 7 57 -44 31z"/>
<path d="M2245 2079 c-10 -19 -26 -44 -38 -56 -15 -17 -18 -30 -13 -54 5 -25
3 -29 -7 -21 -19 16 -69 34 -62 22 3 -6 13 -10 21 -10 7 0 33 -17 56 -37 23
-21 38 -31 34 -23 -4 8 0 6 8 -4 13 -16 13 -22 3 -28 -8 -5 -9 -8 0 -8 6 0 20
-3 30 -6 15 -5 15 -4 3 5 -23 17 -2 13 24 -4 35 -23 69 -107 59 -145 -8 -30
-9 -29 -32 32 -40 107 -40 107 -40 74 -1 -16 14 -58 32 -93 31 -63 32 -65 13
-79 -24 -17 -31 -11 -50 41 l-15 40 0 -32 c-1 -27 -8 -37 -40 -57 -63 -40 -65
-93 -7 -144 17 -15 38 -40 46 -56 13 -26 13 -29 -5 -42 -38 -28 -64 -28 -105
1 -49 34 -109 42 -174 23 l-50 -15 -19 -69 c-11 -38 -25 -73 -33 -77 -8 -4
-21 -22 -30 -39 -12 -24 -18 -28 -25 -17 -7 11 -9 10 -10 -6 -1 -11 -1 -26 0
-33 1 -8 -5 -23 -15 -33 -9 -10 -12 -19 -7 -19 6 0 17 7 24 16 11 13 26 15 74
11 58 -5 59 -4 25 8 -19 8 -48 14 -65 14 l-30 1 25 20 c14 11 37 22 51 25 30
7 59 55 33 55 -8 0 -12 5 -9 10 3 6 33 10 67 10 l60 0 -7 -27 c-9 -37 -10 -38
-37 -19 -12 9 -29 16 -38 16 -15 0 19 -24 53 -36 32 -12 17 -24 -29 -24 -27 0
-43 -4 -39 -10 3 -5 15 -10 27 -10 19 0 19 -1 5 -24 -15 -22 -14 -24 6 -35 19
-10 17 -11 -18 -7 l-40 4 40 -19 40 -19 -55 5 c-30 2 -80 9 -110 16 -40 8 -55
9 -58 0 -8 -25 -18 -8 -17 32 2 101 4 107 28 108 17 1 18 2 4 6 -10 3 -33 -4
-51 -15 -31 -18 -142 -42 -195 -42 -25 0 -27 18 -4 35 13 9 22 10 34 2 14 -9
22 -7 37 7 14 12 22 14 27 6 8 -14 45 16 45 37 0 16 8 16 40 -2 14 -8 42 -14
62 -15 31 0 36 -3 31 -17 -5 -15 -3 -15 14 2 20 20 20 20 -1 23 -101 12 -105
14 -112 34 -5 16 -8 18 -15 7 -32 -53 -3 193 31 262 25 49 70 112 76 106 3 -3
-25 -73 -80 -199 -23 -54 -13 -47 23 15 39 68 74 164 67 182 -3 9 1 15 9 15 9
0 15 -10 16 -27 0 -24 1 -25 8 -8 7 17 10 14 20 -20 6 -22 11 -49 11 -60 0
-11 5 -27 11 -35 8 -11 9 0 5 42 -9 83 -21 103 -75 124 -25 9 -55 23 -66 31
-23 16 -35 17 -35 3 0 -5 6 -10 13 -10 8 0 28 -7 46 -16 l31 -16 -50 -56 c-63
-71 -94 -133 -86 -172 3 -16 1 -32 -5 -36 -7 -4 -6 -10 1 -19 14 -17 8 -20
-65 -35 -57 -12 -280 -17 -335 -8 -50 9 -91 21 -95 28 -3 5 6 17 20 28 14 11
25 25 25 30 0 6 5 14 12 18 8 5 9 0 5 -15 -7 -27 1 -53 14 -45 6 3 16 0 24 -6
8 -6 23 -9 34 -5 11 3 29 0 41 -7 17 -11 22 -11 30 2 7 12 12 12 22 2 15 -15
45 -16 50 -1 3 9 10 9 27 0 19 -10 26 -10 40 3 12 11 21 12 27 6 12 -12 44 -3
44 12 0 5 5 6 10 3 5 -3 10 -3 11 2 0 4 2 27 5 51 4 40 2 44 -25 53 l-30 10
36 82 c62 143 65 156 48 180 -8 12 -15 19 -16 17 -1 -3 -2 -19 -4 -35 -3 -39
-99 -233 -129 -261 -19 -18 -29 -20 -71 -14 -28 4 -54 15 -61 25 -12 16 -18
16 -60 6 -25 -7 -48 -10 -50 -9 -1 2 17 34 42 72 24 38 44 73 44 76 0 4 29 11
65 15 58 6 65 9 65 29 0 33 19 52 83 82 56 26 84 53 69 69 -4 5 -1 5 6 1 6 -4
12 -14 12 -22 0 -22 44 -17 67 9 11 12 24 32 27 44 4 11 13 27 21 33 19 16 19
59 0 66 -8 4 -15 17 -15 30 0 28 -32 64 -58 64 -12 0 -23 -13 -31 -35 -7 -20
-21 -41 -32 -48 -21 -13 -26 -69 -10 -125 9 -32 9 -33 -42 -62 -89 -51 -102
-36 -32 37 63 66 59 93 -5 31 -27 -26 -61 -50 -75 -54 -30 -7 -31 -14 -5 -47
17 -21 18 -30 9 -57 -15 -41 -28 -27 -36 39 -3 30 -9 47 -14 40 -4 -7 -5 -36
-2 -66 l6 -53 -40 0 c-39 0 -40 -1 -90 -85 -28 -46 -54 -93 -58 -105 -4 -12
-15 -20 -29 -20 -26 0 -49 -47 -65 -134 -11 -60 -5 -78 23 -74 11 2 20 -1 20
-7 -1 -5 11 -20 26 -32 l28 -23 15 33 c20 42 24 62 12 60 -5 0 -16 5 -23 13
-11 12 -10 14 6 14 23 0 46 -25 37 -40 -3 -5 1 -10 9 -10 9 0 16 8 16 19 0 27
15 34 30 16 8 -9 21 -13 31 -10 12 4 21 1 25 -9 5 -14 8 -14 29 0 32 21 64 15
56 -10 -7 -17 -8 -17 -24 -2 -16 16 -17 15 -17 -19 0 -31 -2 -34 -17 -27 -16
8 -44 9 -137 4 -29 -2 -29 -2 -11 -22 16 -18 20 -19 33 -6 13 13 18 13 39 -1
21 -14 25 -14 42 1 16 15 19 15 36 -4 25 -28 14 -35 -53 -31 -128 6 -208 19
-223 37 -6 8 -18 14 -25 14 -15 0 -18 -15 -15 -66 2 -30 0 -32 -44 -38 -25 -4
-72 -16 -103 -26 -31 -11 -65 -20 -74 -20 -10 0 -20 -10 -24 -24 -5 -21 -10
-23 -66 -22 -47 1 -63 5 -74 20 -14 20 -18 16 -15 -15 1 -10 -12 -22 -36 -32
-43 -17 -56 -14 -27 8 25 19 11 19 -27 -1 -40 -20 -49 -10 -18 22 13 14 17 23
8 19 -22 -8 -25 51 -3 63 13 7 14 14 6 27 -9 17 -10 17 -23 -3 -8 -12 -22 -22
-31 -22 -22 0 -24 -16 -3 -24 19 -7 21 -85 3 -91 -7 -2 -40 -7 -73 -11 l-60
-8 50 -6 c28 -3 61 -2 74 2 26 9 51 -5 51 -29 0 -10 6 -13 16 -9 53 20 333 82
463 102 41 6 44 5 38 -15 -3 -12 1 -28 9 -35 8 -8 14 -17 14 -19 0 -2 -30 -7
-67 -11 -115 -11 -582 -112 -534 -115 8 -1 86 14 175 33 89 19 225 44 304 56
139 21 144 21 210 4 93 -25 302 -24 392 1 39 11 92 18 135 16 98 -2 317 -35
539 -81 104 -22 191 -38 193 -36 14 14 -463 109 -642 128 -98 11 -111 14 -98
27 8 8 13 25 10 39 -5 24 -4 24 52 18 116 -14 309 -49 435 -81 72 -18 132 -29
134 -25 13 33 29 41 67 33 22 -5 56 -6 75 -3 l35 6 -34 7 c-18 4 -46 7 -62 7
-33 0 -35 3 -43 53 -4 28 -2 39 9 43 20 8 19 24 -1 24 -9 0 -24 10 -33 22 -16
19 -18 19 -24 4 -4 -10 -3 -15 3 -11 6 3 10 1 10 -4 0 -6 -6 -11 -12 -11 -7 0
-5 -5 5 -11 19 -11 24 -59 5 -59 -7 0 -2 -7 10 -16 12 -8 22 -18 22 -22 0 -15
-75 -10 -102 6 -18 11 -31 13 -36 7 -4 -6 -14 -9 -22 -9 -8 1 -29 2 -47 3 -22
1 -34 7 -38 21 -9 27 -54 49 -90 43 -23 -3 -26 -2 -15 6 11 8 4 13 -33 23 -50
13 -57 29 -16 38 23 6 23 6 4 18 -19 11 -18 11 9 12 20 0 27 -4 23 -14 -4 -9
2 -17 13 -21 10 -3 21 -14 23 -23 3 -9 5 -4 6 12 1 25 4 28 26 24 17 -4 25 -1
25 9 0 11 -8 12 -35 7 -50 -9 -69 9 -61 59 4 22 18 54 32 70 15 18 23 38 21
49 -8 28 18 22 45 -11 l24 -28 38 34 c21 19 44 32 51 29 10 -4 18 8 26 37 6
23 20 57 32 76 12 19 22 42 23 50 2 9 10 39 19 66 l15 50 -5 -45 c-3 -24 -11
-50 -17 -57 -6 -8 -8 -16 -5 -19 9 -9 37 53 37 83 0 23 10 34 57 63 54 33 56
35 29 38 -15 2 -35 -3 -45 -12 -16 -14 -52 -24 -39 -10 9 8 -17 96 -40 133
-16 26 -19 45 -16 85 4 35 0 59 -10 76 -9 14 -26 47 -40 74 l-24 48 -17 -33z
m-510 -59 c8 -26 -1 -40 -24 -35 -11 2 -27 -5 -37 -16 -16 -18 -16 -19 2 -19
10 0 34 9 52 20 43 27 40 10 -8 -42 -42 -46 -53 -45 -63 8 -6 32 10 66 41 92
22 17 30 15 37 -8z m547 -44 c3 -26 14 -58 22 -72 9 -13 13 -24 9 -24 -10 1
-49 30 -40 30 4 0 0 11 -8 24 -24 36 -35 84 -22 90 24 9 32 -2 39 -48z m-42
-28 c12 -37 4 -35 -15 2 -9 17 -13 36 -9 42 6 9 9 8 12 -2 2 -8 7 -27 12 -42z
m90 -14 c0 -33 -17 -38 -23 -6 -3 15 -8 38 -12 52 l-7 25 21 -24 c12 -13 21
-34 21 -47z m24 -321 c-12 -56 -15 -59 -29 -28 -11 26 -10 32 3 43 25 19 33
14 26 -15z m-34 -71 c0 -20 -6 -35 -15 -38 -8 -4 -15 -12 -15 -20 0 -8 -4 -14
-9 -14 -17 0 -38 124 -22 134 5 3 12 -10 15 -30 6 -28 10 -33 21 -24 10 8 11
19 4 43 -12 43 -10 48 6 12 8 -16 14 -45 15 -63z m-105 38 c-4 -19 -1 -41 9
-61 16 -31 16 -32 -3 -15 -23 21 -33 64 -20 88 15 27 21 21 14 -12z m-632
-107 c-10 -8 -12 -12 -5 -8 6 3 12 1 12 -4 0 -6 -7 -11 -15 -11 -8 0 -15 -6
-15 -12 0 -9 -4 -8 -10 2 -8 13 -10 12 -10 -2 0 -14 -8 -18 -36 -18 -24 0 -34
4 -31 13 2 6 8 12 13 13 5 0 16 3 24 7 8 3 24 8 35 10 13 3 10 5 -10 6 l-30 1
30 19 c22 13 35 16 48 9 18 -9 18 -10 0 -25z m-203 13 l65 -14 -55 0 c-30 -1
-68 5 -85 13 -40 18 -11 18 75 1z m20 -57 c0 -20 -10 -23 -47 -13 -30 8 -29
18 5 30 33 13 42 9 42 -17z m683 -35 c18 -6 8 -44 -21 -82 l-18 -23 -42 36
c-23 20 -42 40 -42 45 0 16 96 35 123 24z m-99 -69 c16 -24 16 -25 -8 -25 -19
0 -24 5 -22 25 1 32 9 32 30 0z m-781 0 c12 -11 17 -12 20 -2 3 6 6 -5 6 -26
1 -41 -20 -49 -28 -11 -2 10 -9 23 -17 27 -16 9 -19 27 -5 27 5 0 16 -7 24
-15z m435 -17 c-7 -13 -17 -26 -22 -29 -5 -4 -5 -12 -2 -18 5 -8 -2 -11 -21
-11 -15 0 -43 -2 -60 -6 -31 -6 -33 -5 -33 24 0 39 19 53 63 48 20 -3 39 -1
42 4 4 6 15 10 26 10 17 0 18 -3 7 -22z m45 -5 c-6 -18 -31 -43 -44 -43 -14 0
4 49 20 53 29 8 30 7 24 -10z m-154 -116 c-12 -12 -46 -15 -59 -7 -12 7 -11
12 5 30 l19 21 20 -20 c11 -11 18 -22 15 -24z m218 -53 c20 8 16 -33 -9 -86
-21 -44 -28 -50 -78 -65 -70 -22 -356 -25 -436 -5 -81 21 -115 88 -88 172 5
13 7 13 17 -1 7 -8 20 -18 29 -22 9 -3 18 -16 20 -29 4 -30 38 -38 38 -8 0 11
6 22 13 24 6 2 29 9 50 15 33 11 41 11 57 -4 11 -10 20 -34 22 -58 6 -77 59
-75 56 3 0 26 -2 29 -5 10 -2 -14 -6 -31 -9 -39 -8 -25 -31 9 -38 57 l-6 42
56 0 c40 0 54 -3 51 -12 -2 -7 -11 -12 -18 -10 -12 3 -12 1 -1 -10 11 -11 15
-10 23 5 7 12 17 16 30 12 13 -4 28 0 39 10 11 10 25 15 33 12 7 -3 38 1 68 8
50 11 55 11 63 -7 5 -10 15 -17 23 -14z m-512 16 c4 -6 4 -18 1 -27 -6 -14 -9
-13 -26 5 -11 12 -20 24 -20 27 0 9 39 5 45 -5z m-131 -60 c-5 -4 -31 -11 -58
-15 -42 -6 -48 -5 -39 7 7 7 24 15 38 16 15 1 34 6 43 11 18 11 31 -5 16 -19z"/>
<path d="M1711 1098 c-2 -24 -19 -32 -38 -16 -15 12 -15 11 -4 -9 6 -13 15
-23 20 -23 16 0 33 29 28 47 -4 16 -5 16 -6 1z"/>
<path d="M716 2075 c-3 -13 -17 -41 -31 -61 -20 -30 -25 -49 -25 -100 0 -44
-6 -73 -20 -96 -10 -18 -24 -57 -31 -86 l-11 -54 -22 21 c-13 12 -35 21 -52
20 -26 0 -27 -1 -10 -12 11 -7 27 -19 37 -29 9 -9 26 -19 38 -23 16 -5 21 -15
21 -41 0 -42 12 -68 52 -111 17 -17 36 -53 43 -80 7 -26 17 -57 21 -68 7 -20
7 -20 -14 -1 -12 11 -22 29 -22 42 0 56 -34 105 -106 154 -31 20 -57 29 -103
32 -53 4 -61 2 -55 -11 3 -9 12 -39 18 -67 13 -54 14 -55 59 -126 34 -54 92
-88 148 -88 37 0 96 -28 142 -66 35 -30 52 -31 37 -4 -6 11 -8 26 -4 32 4 7 3
8 -4 4 -7 -4 -25 7 -42 25 -37 41 -30 52 9 15 l29 -27 29 51 30 52 27 -46 27
-46 62 -1 c44 0 56 -3 42 -9 -16 -7 -17 -9 -3 -9 22 -1 48 -28 48 -51 0 -24
-25 -32 -78 -24 -37 5 -42 9 -30 18 20 15 41 56 29 56 -5 0 -16 -9 -24 -21
l-15 -21 -7 21 c-7 24 -20 27 -28 7 -4 -11 -1 -13 10 -9 13 5 14 1 8 -25 -6
-30 -5 -32 20 -32 15 0 24 -4 20 -10 -8 -13 -55 -13 -55 1 0 5 -5 7 -12 3 -6
-4 -16 0 -22 8 -14 19 -56 6 -56 -17 0 -8 -5 -15 -11 -15 -5 0 -8 4 -4 9 3 6
-6 6 -25 1 -34 -10 -48 5 -36 36 5 14 -1 15 -39 12 -25 -2 -47 1 -50 7 -3 6
-7 5 -11 -2 -7 -16 -44 -17 -44 -3 0 10 -8 21 -37 54 -7 8 -9 16 -6 20 4 3 -8
6 -25 6 -42 0 -48 -15 -12 -30 16 -7 40 -29 52 -49 12 -20 23 -38 24 -40 2 -2
14 3 27 12 32 21 74 11 94 -23 14 -24 21 -27 53 -23 32 5 40 2 50 -16 7 -13
16 -19 23 -14 7 4 19 6 28 5 10 -2 19 6 22 19 5 19 11 21 51 17 28 -4 44 -2
43 5 -1 6 13 14 32 18 62 13 64 24 33 124 l-28 90 -32 -3 c-19 -2 -51 5 -77
18 -41 20 -46 20 -72 6 -76 -41 -72 -40 -108 -23 -19 9 -35 21 -35 27 0 23 30
81 39 76 5 -4 19 6 31 21 15 20 20 38 18 67 -3 35 -8 43 -37 58 -42 21 -52 36
-45 68 l5 25 -15 -25 c-8 -14 -15 -33 -16 -42 0 -25 -17 -31 -39 -15 -20 13
-19 14 9 73 31 64 49 131 32 120 -5 -3 -13 -18 -16 -33 -12 -49 -51 -143 -59
-143 -18 0 27 179 46 184 49 14 78 25 58 21 -22 -3 -21 -1 10 25 19 15 37 26
42 23 4 -2 7 -1 6 4 -2 4 4 21 11 36 12 25 12 32 0 51 -8 13 -26 39 -38 59
-28 43 -38 46 -46 12z m35 -88 l1 -32 8 30 c4 17 8 22 9 12 0 -10 6 -15 11
-12 20 12 10 -11 -17 -41 -16 -16 -25 -25 -20 -20 4 6 7 15 7 21 0 5 -8 -3
-19 -18 -10 -15 -28 -35 -40 -43 -21 -15 -21 -14 -21 39 0 37 5 59 15 67 23
19 26 9 10 -35 -17 -47 -19 -73 -6 -59 6 5 15 32 22 59 18 76 18 77 29 70 5
-3 11 -21 11 -38z m-75 -384 c-3 -8 -6 -24 -6 -34 0 -27 -20 -14 -21 14 -1 16
-3 17 -6 5 -2 -9 1 -26 7 -37 6 -12 8 -21 6 -21 -14 0 -26 44 -20 75 5 31 8
33 26 24 12 -6 17 -17 14 -26z m44 -14 c0 -16 -4 -29 -10 -29 -5 0 -10 -12
-10 -27 1 -28 1 -28 15 6 8 18 15 45 15 60 l1 26 13 -24 c14 -25 11 -44 -14
-106 -9 -21 -14 -26 -18 -15 -3 8 -11 21 -19 28 -16 16 -17 48 -2 90 13 38 29
33 29 -9z m80 -22 c0 -29 -39 -98 -40 -70 0 6 5 15 10 18 6 3 10 26 10 51 0
28 4 43 10 39 6 -3 10 -21 10 -38z m-241 -26 c11 -11 21 -17 24 -15 2 3 21
-11 41 -30 27 -27 36 -44 36 -69 0 -18 7 -42 15 -54 14 -20 13 -21 -40 -28
-59 -7 -98 4 -55 16 l25 7 -27 1 c-16 1 -42 14 -60 31 l-33 29 50 2 50 2 -43
6 c-53 9 -68 24 -80 79 l-10 42 44 0 c30 0 50 -6 63 -19z m261 -216 c7 -8 10
-18 7 -21 -5 -5 -87 33 -87 40 0 3 -3 12 -6 21 -6 15 -2 14 33 -3 22 -11 45
-28 53 -37z m163 28 c33 -6 33 -10 5 -40 -28 -30 -32 -29 -57 11 -27 43 -26
50 2 41 12 -4 34 -9 50 -12z m-248 -53 l30 -31 -36 15 c-20 8 -59 18 -88 22
-74 10 -73 24 2 24 57 0 66 -3 92 -30z m168 -160 c-6 -23 -8 -24 -34 -10 -24
13 -25 37 -1 42 24 6 41 -9 35 -32z"/>
<path d="M540 1497 c24 -26 46 -47 48 -47 11 0 -29 47 -59 69 -30 22 -29 20
11 -22z"/>
<path d="M1310 1990 c0 -26 39 -80 59 -80 10 0 21 -7 25 -15 10 -26 50 -18 68
15 l17 29 -30 -4 c-16 -3 -42 -7 -58 -10 -26 -4 -33 1 -55 38 -14 23 -25 35
-26 27z"/>
<path d="M562 1980 c3 -8 -3 -33 -13 -55 -10 -22 -19 -55 -19 -74 0 -38 32
-112 57 -133 14 -11 14 -8 -1 21 -24 45 -31 130 -17 187 9 36 9 50 0 58 -8 8
-10 7 -7 -4z"/>
<path d="M2426 1953 c14 -66 9 -165 -10 -201 -25 -47 -14 -50 17 -5 36 52 43
107 22 163 -9 25 -17 53 -16 63 0 9 -5 17 -11 17 -7 0 -8 -12 -2 -37z"/>
<path d="M1372 1963 c14 -17 30 -16 54 2 18 14 16 15 -23 13 -34 -1 -40 -5
-31 -15z"/>
<path d="M1530 1644 c-9 -10 -10 -18 -2 -26 12 -12 32 -2 32 17 0 21 -16 26
-30 9z"/>
<path d="M1357 1644 c-14 -14 -7 -35 11 -32 9 2 17 10 17 17 0 16 -18 25 -28
15z"/>
<path d="M1437 1623 c-14 -13 -6 -23 18 -23 16 0 25 6 25 15 0 15 -31 21 -43
8z"/>
<path d="M2502 1581 c-34 -3 -66 -11 -70 -16 -4 -6 -19 -16 -33 -22 -37 -16
-79 -74 -86 -120 -8 -49 -33 -89 -44 -71 -7 10 -9 10 -9 1 0 -7 -18 -22 -40
-33 -22 -11 -40 -28 -40 -37 0 -13 5 -12 25 7 33 31 41 21 10 -13 -14 -14 -31
-24 -39 -21 -8 3 -17 1 -21 -5 -3 -7 0 -8 9 -5 19 7 22 -16 4 -34 -21 -21 2
-13 45 17 64 43 82 51 144 62 86 16 116 39 157 120 20 39 36 80 36 92 1 12 7
33 15 47 16 28 19 41 8 38 -5 0 -36 -4 -71 -7z m38 -33 c0 -27 -21 -88 -33
-95 -7 -4 -32 -10 -57 -14 l-45 -6 48 -2 c26 0 47 -5 47 -9 0 -12 -30 -37 -53
-45 -10 -4 -16 -11 -12 -16 10 -18 -16 -23 -76 -16 -46 5 -57 10 -49 20 5 7
20 11 33 10 14 -1 15 -1 3 2 -32 8 -13 80 32 122 l36 35 7 -24 c3 -14 2 -29
-3 -34 -4 -6 -8 -15 -8 -20 0 -6 20 10 45 34 24 24 42 46 40 49 -3 2 -19 -8
-35 -24 l-30 -29 0 27 c0 19 7 30 23 37 34 13 87 12 87 -2z m-120 -228 c0 -5
-15 -10 -34 -10 -19 0 -63 -9 -98 -19 l-63 -20 35 30 c30 25 42 29 97 29 35 0
63 -4 63 -10z"/>
<path d="M1870 1489 c0 -11 10 -18 30 -21 27 -4 31 -2 28 16 -4 27 -58 32 -58
5z"/>
<path d="M1780 1450 c-11 -22 -19 -40 -17 -40 3 0 16 18 31 40 14 22 22 40 16
40 -5 0 -19 -18 -30 -40z"/>
<path d="M1857 1378 c6 -85 8 -96 19 -85 9 9 -6 167 -16 167 -5 0 -6 -37 -3
-82z"/>
<path d="M1804 1387 c-33 -49 -46 -77 -42 -89 4 -11 78 98 78 114 0 17 -16 6
-36 -25z"/>
<path d="M2126 1299 c-10 -30 -26 -95 -25 -104 0 -5 9 16 20 49 11 32 18 61
15 64 -3 2 -8 -1 -10 -9z"/>
<path d="M2425 1281 c3 -6 -22 -18 -56 -27 -46 -13 -57 -19 -45 -26 11 -6 21
-4 32 6 17 18 44 21 44 6 0 -6 -14 -19 -31 -29 -31 -19 -31 -19 -9 -31 12 -6
23 -10 24 -8 1 2 12 19 24 39 12 19 33 41 47 49 34 18 32 30 -6 30 -16 0 -28
-4 -24 -9z"/>
<path d="M2268 1203 c-20 -3 -28 -10 -28 -24 0 -17 -12 -23 -47 -22 -28 1 -11
-15 20 -20 36 -5 46 5 41 37 -2 11 -2 16 2 9 4 -9 12 -9 32 -1 58 25 51 32
-20 21z"/>
<path d="M2271 1099 c-1 -19 -28 -45 -56 -53 -11 -3 -3 -3 18 0 38 5 93 44 63
44 -8 0 -17 6 -19 13 -4 8 -6 6 -6 -4z"/>
<path d="M382 949 c-30 -11 -24 -31 12 -40 22 -6 26 -5 22 7 -3 9 4 16 22 20
15 3 36 9 47 14 29 12 -73 12 -103 -1z"/>
<path d="M2530 949 c97 -46 101 -47 121 -21 7 9 9 14 5 10 -5 -4 -15 -3 -22 3
-7 6 -39 12 -71 15 -50 4 -55 3 -33 -7z"/>
<path d="M2437 935 c17 -8 51 -17 75 -20 l43 -5 -40 13 c-23 8 -56 16 -75 20
l-35 6 32 -14z"/>
<path d="M408 856 c18 -6 30 -15 25 -20 -4 -5 2 -4 14 3 42 21 36 31 -19 30
l-53 -1 33 -12z"/>
<path d="M2605 861 c-6 -5 -26 -14 -45 -19 l-35 -10 36 -1 c23 -1 46 6 60 19
18 14 20 19 9 20 -9 0 -20 -4 -25 -9z"/>
<path d="M1047 853 c-13 -13 -7 -53 8 -53 10 0 15 10 15 30 0 29 -9 38 -23 23z"/>
<path d="M1412 772 c-1 -48 -7 -102 -12 -119 -8 -31 -7 -33 16 -33 23 0 24 3
24 71 0 59 3 70 15 65 10 -4 15 1 15 14 0 12 -5 17 -13 14 -10 -4 -12 3 -9 26
4 31 28 37 26 7 -1 -9 2 -14 7 -11 5 3 9 16 9 30 0 21 -4 24 -37 24 l-38 0 -3
-88z"/>
<path d="M1751 843 c3 -33 -1 -43 -17 -43 -23 0 -45 -65 -42 -123 3 -51 3 -52
41 -58 l37 -6 1 56 c0 31 3 86 8 124 6 61 5 67 -12 67 -11 0 -18 -6 -16 -17z
m-7 -137 c-10 -94 -31 -87 -24 9 2 32 18 70 26 62 3 -2 2 -34 -2 -71z"/>
<path d="M1832 749 c-1 -55 -7 -109 -12 -120 -10 -17 -7 -19 24 -19 48 0 66
28 66 102 0 47 -4 60 -21 72 -16 11 -20 22 -17 40 4 21 1 26 -16 26 -20 0 -21
-6 -24 -101z m53 -11 c7 -40 -6 -90 -25 -96 -9 -3 -11 2 -7 19 4 13 7 43 7 67
0 50 17 56 25 10z"/>
<path d="M917 834 c-4 -4 -7 -18 -7 -31 0 -28 23 -27 28 1 4 20 -11 40 -21 30z"/>
<path d="M864 802 c-6 -4 -12 -38 -13 -77 -2 -38 -4 -81 -4 -95 -1 -15 3 -25
11 -25 10 0 15 22 18 84 2 46 6 92 9 102 7 20 -2 24 -21 11z"/>
<path d="M1514 789 c-26 -29 -33 -139 -9 -162 22 -23 32 -21 51 9 21 32 25
134 5 158 -17 21 -24 20 -47 -5z m34 -76 c-7 -78 -28 -94 -28 -21 0 64 7 91
22 82 6 -4 8 -30 6 -61z"/>
<path d="M1615 790 c-19 -21 -31 -103 -21 -143 7 -29 33 -42 52 -26 21 17 36
87 29 130 -9 49 -35 67 -60 39z m35 -54 c0 -47 -11 -96 -21 -96 -10 0 -12 100
-3 124 10 25 24 8 24 -28z"/>
<path d="M2100 793 c0 -10 -11 -54 -25 -98 -29 -94 -29 -95 -12 -95 9 0 14 12
15 31 0 18 6 37 12 43 16 16 32 -12 26 -46 -5 -27 -4 -28 33 -28 41 0 51 13
51 70 0 23 36 67 46 57 4 -4 -14 -164 -21 -184 -3 -8 5 -13 19 -13 19 0 22 4
18 30 -4 25 -1 30 17 30 26 0 41 28 41 78 0 46 -11 58 -64 67 -28 6 -41 4 -47
-6 -7 -11 -9 -10 -9 4 0 9 -6 17 -12 17 -9 0 -14 -21 -16 -67 -2 -63 -6 -82
-17 -72 -2 3 -6 47 -9 99 -4 87 -6 95 -25 98 -15 2 -21 -2 -21 -15z m17 -85
c-3 -20 -4 -21 -11 -5 -5 9 -5 29 0 45 7 25 8 26 11 5 3 -13 3 -33 0 -45z
m177 -22 c7 -29 -8 -76 -25 -76 -6 0 -8 7 -5 16 3 9 6 31 6 50 0 39 15 45 24
10z"/>
<path d="M1253 793 c-7 -2 -13 -22 -13 -43 0 -52 -11 -100 -22 -100 -6 0 -7
27 -3 71 6 63 5 70 -9 67 -13 -2 -17 -19 -20 -86 -4 -84 6 -110 30 -78 11 16
13 16 22 -1 6 -10 13 -15 17 -12 5 6 17 191 12 188 -1 0 -8 -3 -14 -6z"/>
<path d="M1302 788 c-20 -20 -14 -79 9 -104 12 -12 18 -27 14 -33 -10 -18 -25
-13 -35 12 -8 20 -9 19 -9 -10 -1 -23 4 -33 19 -38 47 -15 75 60 40 107 -11
15 -20 35 -20 45 0 15 4 14 21 -7 15 -18 19 -20 15 -7 -3 10 -6 25 -6 33 0 17
-31 19 -48 2z"/>
<path d="M2596 764 c-27 -22 -43 -40 -36 -42 7 -3 17 2 21 10 5 9 19 22 32 31
23 15 24 15 20 -11 l-3 -27 10 24 c21 49 7 54 -44 15z"/>
<path d="M1105 770 c-22 -24 -32 -109 -16 -139 18 -33 50 -27 67 14 18 45 18
95 -2 123 -19 27 -26 27 -49 2z m35 -58 c0 -48 -10 -83 -21 -76 -10 6 -12 84
-3 108 10 26 24 7 24 -32z"/>
<path d="M990 767 c-52 -26 -64 -132 -18 -161 20 -12 32 -3 43 34 7 24 7 24
-9 5 -14 -17 -17 -18 -26 -5 -13 18 -6 88 9 103 7 7 13 3 20 -14 9 -22 10 -21
10 14 1 20 0 37 -1 37 -2 0 -14 -6 -28 -13z"/>
<path d="M1045 772 c-13 -9 -18 -159 -6 -166 17 -11 23 14 25 91 1 75 -2 87
-19 75z"/>
<path d="M1932 695 c-2 -71 0 -85 13 -85 8 0 15 5 15 10 0 6 4 10 10 10 5 0 8
-6 6 -12 -3 -7 -7 -25 -10 -40 -4 -16 -13 -28 -21 -28 -10 0 -15 10 -16 28 0
24 -1 25 -9 7 -20 -46 -1 -73 40 -60 25 8 31 27 45 140 9 72 9 102 1 107 -7 5
-14 -9 -19 -40 -14 -80 -17 -92 -26 -92 -5 0 -6 32 -3 70 4 55 2 70 -9 70 -11
0 -15 -21 -17 -85z"/>
<path d="M668 753 c-12 -3 -18 -21 -23 -76 -4 -40 -12 -78 -19 -86 -9 -12 -6
-13 23 -8 18 4 40 7 47 7 21 0 44 54 44 103 0 59 -18 75 -72 60z m40 -65 c2
-33 -2 -51 -17 -69 l-20 -24 -1 26 c0 54 13 120 24 116 6 -2 12 -24 14 -49z"/>
<path d="M907 753 c-4 -3 -7 -40 -7 -80 0 -102 21 -94 27 10 3 70 -2 89 -20
70z"/>
<path d="M776 721 c-23 -25 -33 -96 -16 -116 19 -23 49 -18 60 11 14 36 12 42
-6 16 -8 -12 -20 -20 -25 -17 -16 11 -9 44 11 50 41 13 49 75 10 75 -9 0 -25
-9 -34 -19z"/>
<path d="M341 703 c-2 -43 9 -53 59 -53 30 0 50 5 53 13 3 9 13 10 48 0 24 -6
45 -11 46 -10 0 1 -21 16 -47 33 -30 20 -46 26 -43 16 8 -19 -23 -42 -58 -42
-29 0 -44 13 -52 45 -4 19 -5 19 -6 -2z"/>
<path d="M2647 702 c2 -10 -3 -24 -12 -32 -13 -11 -20 -11 -40 0 -13 7 -22 17
-18 23 3 5 -4 6 -18 2 -50 -16 -67 -24 -75 -36 -5 -9 -2 -10 9 -6 37 14 87 19
87 8 0 -6 15 -11 33 -11 25 0 37 6 46 24 13 23 9 46 -9 46 -4 0 -6 -8 -3 -18z"/>
<path d="M2346 694 c-9 -24 -7 -29 6 -16 7 7 18 12 25 12 22 0 14 -20 -11 -30
-29 -11 -42 -45 -25 -66 8 -10 15 -11 24 -4 9 7 15 8 19 1 4 -6 12 -8 19 -5
13 5 16 92 3 112 -11 17 -53 15 -60 -4z"/>
<path d="M396 593 c-65 -8 -133 -21 -150 -29 -17 -8 -22 -12 -11 -8 81 24 276
32 293 11 6 -6 12 -28 15 -47 l4 -35 1 35 c1 20 -5 45 -13 56 -8 12 -11 24 -8
28 3 3 2 5 -3 5 -5 -1 -62 -8 -128 -16z"/>
<path d="M558 588 c17 -9 22 -20 22 -48 0 -50 11 -100 21 -100 5 0 4 12 -2 27
-6 15 -9 48 -8 72 3 36 0 46 -16 52 -30 12 -43 9 -17 -3z"/>
<path d="M2505 591 c-20 -9 -63 -51 -52 -51 4 0 16 9 27 20 29 29 130 27 285
-4 29 -6 29 -6 5 5 -21 10 -205 39 -235 38 -5 0 -19 -4 -30 -8z"/>
<path d="M475 516 c9 -81 62 -120 165 -119 48 0 109 13 230 48 91 26 170 52
175 57 6 6 5 7 -5 4 -48 -16 -322 -85 -357 -90 -59 -9 -136 10 -164 40 -13 14
-30 42 -36 62 l-13 37 5 -39z"/>
<path d="M1444 540 c-17 -6 -37 -17 -44 -25 -10 -11 -27 -13 -84 -9 -41 4
-103 1 -146 -6 -72 -12 -265 -68 -258 -75 1 -2 44 8 93 21 84 23 328 49 347
38 13 -8 9 -34 -5 -34 -7 0 -13 -10 -14 -22 -2 -20 -1 -20 14 -5 15 15 17 15
28 -6 6 -12 23 -28 38 -35 24 -12 32 -11 53 2 29 20 31 47 4 71 -11 10 -17 22
-13 28 4 6 -2 8 -14 5 -39 -10 -48 9 -13 27 38 20 129 17 155 -5 23 -19 0 -30
-39 -19 -17 5 -42 8 -56 8 -15 -1 -7 -5 21 -11 l46 -10 -23 -23 c-31 -31 -30
-50 2 -72 24 -15 29 -15 53 -2 14 8 31 24 37 36 9 20 12 21 26 7 14 -14 16
-13 16 10 0 15 -5 29 -11 33 -6 3 -7 1 -3 -5 4 -7 3 -12 -2 -12 -14 0 -21 11
-15 26 3 9 21 14 52 14 25 0 41 -4 35 -8 -7 -4 29 -8 80 -8 63 -1 122 -10 190
-28 55 -14 101 -24 103 -22 7 7 -162 56 -247 72 -53 10 -113 14 -160 11 -63
-4 -79 -1 -101 15 -31 23 -100 31 -145 18z m172 -90 c-4 -39 -23 -60 -51 -60
-28 0 -40 27 -23 49 20 26 32 31 52 25 12 -4 16 -2 12 5 -4 6 -3 11 3 11 6 0
9 -13 7 -30z m-166 0 c22 -22 26 -45 9 -55 -18 -11 -58 4 -70 27 -10 18 -8 24
7 35 24 17 30 17 54 -7z"/>
<path d="M2521 532 c-2 -34 -29 -77 -60 -95 -58 -34 -105 -31 -295 18 -98 25
-183 44 -188 43 -9 -3 285 -88 354 -103 98 -20 207 54 195 133 -3 24 -4 24 -6
4z"/>
<path d="M2421 517 c-1 -10 -8 -31 -16 -47 -9 -17 -11 -30 -6 -30 11 0 51 40
51 51 0 4 3 16 7 26 6 15 4 16 -9 5 -13 -10 -17 -10 -21 0 -3 8 -6 6 -6 -5z"/>
<path d="M1270 453 c-48 -17 -102 -44 -98 -48 3 -3 20 2 38 12 19 9 46 16 61
16 16 0 30 6 33 14 5 13 -7 16 -34 6z"/>
<path d="M1696 445 c7 -17 24 -20 24 -5 0 7 6 7 18 0 9 -5 34 -16 56 -25 31
-12 36 -12 27 -1 -11 13 -97 46 -120 46 -6 0 -8 -7 -5 -15z"/>
<path d="M1063 363 c-7 -2 -13 -16 -13 -29 0 -19 8 -28 30 -35 17 -6 30 -17
30 -25 0 -17 -22 -18 -37 -3 -6 6 -17 9 -23 7 -23 -7 21 -39 49 -36 21 2 27 9
29 34 3 28 -1 33 -29 43 -25 8 -30 14 -21 23 8 8 15 8 27 -2 20 -17 32 -5 15
15 -12 15 -34 18 -57 8z"/>
<path d="M1604 353 c-20 -20 -2 -32 20 -13 29 24 27 -11 -3 -47 -17 -21 -31
-41 -31 -45 0 -5 18 -8 40 -8 22 0 40 5 40 10 0 6 -9 10 -20 10 -11 0 -20 4
-20 8 0 5 9 17 20 27 23 20 26 45 8 63 -17 17 -34 15 -54 -5z"/>
<path d="M1702 358 c-13 -13 -16 -75 -6 -102 7 -19 35 -21 52 -4 7 7 12 30 12
53 0 40 -13 65 -35 65 -6 0 -16 -5 -23 -12z m36 -59 c-2 -19 -7 -33 -13 -32
-12 3 -19 49 -10 71 10 26 27 -2 23 -39z"/>
<path d="M1793 363 c-15 -5 -18 -33 -4 -33 6 0 13 5 17 11 4 7 9 8 17 0 10
-10 8 -13 -39 -78 -16 -23 -16 -23 25 -23 29 0 41 4 41 14 0 10 -7 12 -22 8
l-22 -5 22 28 c25 31 28 55 10 73 -13 13 -24 14 -45 5z"/>
<path d="M1893 351 c-13 -11 -23 -25 -23 -31 0 -10 3 -10 15 0 13 11 15 6 15
-34 0 -34 4 -46 15 -46 12 0 15 14 15 65 0 36 -3 65 -7 65 -5 -1 -18 -9 -30
-19z"/>
<path d="M1223 332 c-20 -3 -23 -9 -23 -48 0 -54 18 -59 22 -6 2 20 8 37 13
37 6 0 11 -17 13 -37 4 -53 22 -48 22 6 0 46 -8 55 -47 48z"/>
<path d="M1308 329 c-18 -10 -23 -44 -12 -73 8 -20 53 -21 61 -1 7 21 -6 33
-16 16 -11 -17 -31 -5 -31 18 0 25 11 33 27 19 18 -15 29 -2 13 17 -15 17 -19
18 -42 4z"/>
<path d="M1402 333 c-22 -8 -33 -40 -22 -68 8 -21 16 -26 37 -23 14 2 28 9 31
16 3 9 -3 11 -22 6 -16 -4 -26 -2 -26 5 0 6 14 11 30 11 33 0 35 3 20 29 -11
21 -29 30 -48 24z"/>
<path d="M1150 285 c0 -30 4 -45 13 -45 8 0 12 15 12 45 0 29 -4 45 -12 45 -9
0 -13 -16 -13 -45z"/>
<path d="M1 456 c-1 -50 47 -111 119 -150 46 -25 59 -28 129 -24 75 3 79 2
132 -34 102 -70 226 -94 358 -69 37 7 51 5 90 -14 25 -13 55 -32 66 -42 77
-70 220 -123 330 -122 40 0 40 0 15 14 -14 8 -49 14 -78 15 -66 0 -147 28
-207 71 -154 112 -163 117 -210 101 -26 -9 -73 -12 -135 -10 -80 3 -105 8
-153 32 -31 15 -74 43 -94 62 -32 31 -40 34 -61 25 -36 -17 -123 -13 -167 8
-54 25 -104 79 -120 132 l-14 44 0 -39z"/>
<path d="M2992 469 c-2 -26 -43 -90 -78 -121 -49 -43 -167 -63 -215 -37 -17 9
-27 4 -61 -26 -88 -80 -235 -115 -364 -86 -51 12 -55 11 -101 -16 -26 -15 -73
-47 -104 -70 -64 -50 -149 -83 -216 -83 -27 -1 -59 -7 -73 -15 -24 -14 -24
-14 20 -15 91 0 231 51 299 109 19 17 56 41 82 56 44 23 51 24 100 14 114 -25
261 7 351 75 42 32 45 33 119 28 67 -4 80 -2 127 23 29 15 69 47 88 71 30 36
35 49 31 81 -2 24 -4 28 -5 12z"/>
</g>
</svg>
